<?xml version="1.0" ?><svg height="512" id="svg2" version="1.1" width="512" xmlns="http://www.w3.org/2000/svg" xmlns:cc="http://creativecommons.org/ns#" xmlns:dc="http://purl.org/dc/elements/1.1/" xmlns:inkscape="http://www.inkscape.org/namespaces/inkscape" xmlns:rdf="http://www.w3.org/1999/02/22-rdf-syntax-ns#" xmlns:sodipodi="http://sodipodi.sourceforge.net/DTD/sodipodi-0.dtd" xmlns:svg="http://www.w3.org/2000/svg"><defs id="defs4"/><g id="layer1" transform="translate(0,-540.36218)"><g id="g4305"><g id="g4345" transform="translate(28,-40.00001)"><g id="text2994" style="font-size:550px;font-style:normal;font-variant:normal;font-weight:normal;font-stretch:normal;text-align:start;line-height:125%;letter-spacing:0px;word-spacing:0px;writing-mode:lr-tb;text-anchor:start;fill:#222222;fill-opacity:1;stroke:none;font-family:Ubuntu;-inkscape-font-specification:Ubuntu"><path d="M 76,66 C 70.764155,66.00052 65.546051,68.14145 61.84375,71.84375 58.141449,75.54605 56.000524,80.76416 56,86 l 0,80 c 5.24e-4,5.23584 2.141449,10.45395 5.84375,14.15625 C 65.546051,183.85855 70.764155,185.99948 76,186 l 20,0 0,10 -20,0 c -5.235845,5.2e-4 -10.453949,2.14145 -14.15625,5.84375 C 58.141449,205.54605 56.000524,210.76416 56,216 l 0,80 c 5.24e-4,5.23584 2.141449,10.45395 5.84375,14.15625 C 65.546051,313.85855 70.764155,315.99948 76,316 l 20,0 0,10 -20,0 c -5.235845,5.2e-4 -10.453949,2.14145 -14.15625,5.84375 C 58.141449,335.54605 56.000524,340.76416 56,346 l 0,80 c 5.24e-4,5.2358 2.141449,10.45395 5.84375,14.15625 C 65.546051,443.85865 70.764155,445.9995 76,446 l 228.59375,0 -40,-40 L 96,406 96,366 c 50.34589,0.11503 101.0886,0.11931 151.8125,0.0937 1.34862,-3.49859 3.43631,-6.71029 6.21875,-9.5 l 0.0312,0 L 284.65625,326 136,326 l 0,-10 158.65625,0 40.1875,-40.1875 C 255.17923,275.75427 175.05101,276 96,276 l 0,-40 c 95.2314,0.23599 191.7157,0.0723 287.09375,0.0312 0.47015,-0.0461 0.93217,-0.10479 1.40625,-0.125 1.13965,-0.0486 2.27946,0.0229 3.4375,0.125 C 397.26025,236.02773 406.70461,236 416,236 l 0,40 c -0.83157,-0.003 -1.66821,0.003 -2.5,0 l 0,16.28125 42.5,0 L 456,216 c -5.2e-4,-5.23584 -2.14145,-10.45395 -5.84375,-14.15625 C 446.45395,198.14145 441.23584,196.00052 436,196 l -20,0 0,-10 20,0 c 5.23584,-5.2e-4 10.45395,-2.14145 14.15625,-5.84375 3.7023,-3.7023 5.84323,-8.92041 5.84375,-14.15625 l 0,-80 C 455.99948,80.76416 453.85855,75.54605 450.15625,71.84375 446.45395,68.14145 441.23584,66.00052 436,66 z m 20,40 320,0 0,40 c -106.11244,-0.43934 -214.01284,0 -320,0 z m 40,80 240,0 0,10 -240,0 z" id="path17" style="font-size:medium;font-style:normal;font-variant:normal;font-weight:normal;font-stretch:normal;text-indent:0;text-align:start;text-decoration:none;line-height:125%;letter-spacing:0;word-spacing:0;text-transform:none;direction:ltr;block-progression:tb;writing-mode:lr-tb;text-anchor:start;baseline-shift:baseline;color:#000000;fill:#222222;fill-opacity:1;stroke:none;stroke-width:40;marker:none;visibility:visible;display:inline;overflow:visible;enable-background:accumulate;font-family:Ubuntu;-inkscape-font-specification:Ubuntu" transform="translate(-28,580.36219)"/><path d="m 477.99983,1012.6542 c -1.9e-4,1.9635 -0.80855,3.9148 -2.19692,5.3031 -1.38836,1.3884 -3.33964,2.1967 -5.30308,2.1969 l -105,0 0,48.7501 c -0.006,2.9413 -1.91439,5.791 -4.63206,6.9158 -2.71767,1.125 -6.08199,0.4578 -8.1648,-1.6189 l -112.5,-112.50005 c -1.38441,-1.38804 -2.18997,-3.33646 -2.18997,-5.29688 0,-1.96041 0.80556,-3.90883 2.18997,-5.29687 l 112.5,-112.5 c 2.08281,-2.07679 5.44713,-2.7439 8.1648,-1.619 2.71767,1.1249 4.62633,3.97459 4.63206,6.91587 l 0,48.75 105,0 c 1.96344,2e-4 3.91472,0.80856 5.30308,2.19693 1.38837,1.38836 2.19673,3.33963 2.19692,5.30307 z" id="path2991-1" style="font-size:medium;font-style:normal;font-variant:normal;font-weight:normal;font-stretch:normal;text-indent:0;text-align:start;text-decoration:none;line-height:normal;letter-spacing:normal;word-spacing:normal;text-transform:none;direction:ltr;block-progression:tb;writing-mode:lr-tb;text-anchor:start;baseline-shift:baseline;color:#000000;fill:#2980b9;fill-opacity:1;fill-rule:nonzero;stroke:none;stroke-width:20;marker:none;visibility:visible;display:inline;overflow:visible;enable-background:accumulate;font-family:Sans;-inkscape-font-specification:Sans"/></g></g></g></g></svg>