<?xml version="1.0" ?><svg height="512" id="svg2" version="1.1" width="512" xmlns="http://www.w3.org/2000/svg" xmlns:cc="http://creativecommons.org/ns#" xmlns:dc="http://purl.org/dc/elements/1.1/" xmlns:inkscape="http://www.inkscape.org/namespaces/inkscape" xmlns:rdf="http://www.w3.org/1999/02/22-rdf-syntax-ns#" xmlns:sodipodi="http://sodipodi.sourceforge.net/DTD/sodipodi-0.dtd" xmlns:svg="http://www.w3.org/2000/svg"><defs id="defs4"/><g id="layer1" transform="translate(0,-540.3622)"><g id="layer1-5" transform="translate(-573.14286,170.28574)"/><g id="g3814" transform="translate(80.867317,-43.35843)"><g id="layer1-5-4" transform="translate(-1158.5077,153.46641)"/><g id="g3811" transform="translate(43.500001,-55.858415)"><path d="M 199.6875,61.71875 A 20.002,20.002 0 0 0 196.90625,62 L 20,62 A 20.002,20.002 0 0 0 0,82 l 0,410 a 20.002,20.002 0 0 0 20,20 l 187.90625,0 5,-8.65625 -12.90625,0 c -5.23584,-5e-4 -10.45395,-2.1726 -14.15625,-5.875 -3.7023,-3.7023 -5.84323,-8.8892 -5.84375,-14.125 L 180,472 l -140,0 0,-370 140,0 0,106.78125 a 20.002,20.002 0 0 0 5.75,17.53125 20.002,20.002 0 0 0 0.15625,0.15625 20.002,20.002 0 0 0 0.28125,0.25 A 20.002,20.002 0 0 0 203.28125,232 L 310,232 l 0,94.53125 2.5,4.34375 6.46875,-11.1875 c 3.56642,-6.18069 10.64727,-10.16289 17.78125,-10 3.33463,0.0823 6.6448,1.01569 9.53125,2.6875 L 350,314.53125 350,215.25 a 20.002,20.002 0 0 0 -7.53125,-19.09375 L 215.75,69.4375 A 20.002,20.002 0 0 0 199.6875,61.71875 z M 220,130.28125 281.71875,192 220,192 l 0,-61.71875 z" id="path3833" style="font-size:medium;font-style:normal;font-variant:normal;font-weight:normal;font-stretch:normal;text-indent:0;text-align:start;text-decoration:none;line-height:normal;letter-spacing:normal;word-spacing:normal;text-transform:none;direction:ltr;block-progression:tb;writing-mode:lr-tb;text-anchor:start;baseline-shift:baseline;color:#000000;fill:#222222;fill-opacity:1;fill-rule:nonzero;stroke:none;stroke-width:40;marker:none;visibility:visible;display:inline;overflow:visible;enable-background:accumulate;font-family:Sans;-inkscape-font-specification:Sans" transform="translate(-80.867317,583.72063)"/><path d="m 207.86706,913.4083 -64.96875,37.5 23.76562,41.15629 -47.53125,0 0,74.99981 47.53125,0 -23.76562,41.1562 64.96875,37.5 23.76562,-41.1562 23.76564,41.1562 64.96875,-37.5 -23.76563,-41.1562 47.53124,0 0,-74.99981 -47.53124,0 23.76563,-41.15629 -64.96875,-37.5 -23.76564,41.15625 -23.76562,-41.15625 z" id="rect2984" style="color:#000000;fill:#2980b9;fill-opacity:1;fill-rule:nonzero;stroke:none;stroke-width:40;marker:none;visibility:visible;display:inline;overflow:visible;enable-background:accumulate"/></g></g></g></svg>